<svg width="140" height="140" viewBox="0 0 140 140" fill="none" xmlns="http://www.w3.org/2000/svg">
<path d="M29.4509 102.218C29.4509 105.011 31.7145 107.275 34.5071 107.275C31.7146 107.275 29.4509 109.538 29.4509 112.331C29.4509 109.538 27.1871 107.275 24.3946 107.275C27.1869 107.274 29.4509 105.011 29.4509 102.218Z" fill="#ED8F27"/>
<path d="M31.1705 116.536H27.7315V112.331C27.7315 110.491 26.2347 108.994 24.3942 108.994H20.1883V105.555H24.3942C26.2347 105.555 27.7315 104.058 27.7315 102.218V98.013H31.1705V102.218C31.1705 104.058 32.6672 105.555 34.5064 105.555V108.994C32.6672 108.994 31.1705 110.491 31.1705 112.331V116.536ZM28.9002 107.274C29.0942 107.447 29.2781 107.631 29.451 107.825C29.6231 107.631 29.8066 107.447 30.0006 107.274C29.8066 107.102 29.6231 106.918 29.451 106.724C29.2782 106.918 29.0943 107.102 28.9002 107.274ZM38.7125 108.994H34.5064V105.555H38.7125V108.994Z" fill="#ED8F27"/>
<path d="M98.6475 18.3754C98.6475 21.4255 101.12 23.8979 104.17 23.8979C101.12 23.8979 98.6475 26.3704 98.6475 29.4205C98.6475 26.3704 96.1749 23.8979 93.1249 23.8979C96.1749 23.8979 98.6475 21.4255 98.6475 18.3754Z" fill="#ED8F27"/>
<path d="M100.526 34.0134H96.7697V29.4209C96.7697 27.4107 95.1348 25.776 93.1246 25.776H88.5309V22.0198H93.1246C95.1348 22.0198 96.7697 20.3849 96.7697 18.3747V13.7823H100.526V18.3747C100.526 20.3849 102.161 22.0198 104.17 22.0198V25.776C102.161 25.776 100.526 27.4107 100.526 29.4209V34.0134ZM98.0461 23.8979C98.258 24.0866 98.4589 24.2874 98.6476 24.4993C98.8356 24.2871 99.036 24.0863 99.2478 23.8979C99.036 23.7095 98.8355 23.5086 98.6476 23.2963C98.4589 23.5083 98.258 23.7091 98.0461 23.8979ZM108.763 25.776H104.17V22.0198H108.763V25.776Z" fill="#ED8F27"/>
<path d="M66.7796 115.128H72.2187V119.2H66.7796V115.128ZM102.049 35.0513H116.399V39.1241H102.049V35.0513ZM120.25 35.0513H125.081V39.1241H120.25V35.0513ZM77.5153 115.128H80.7212V119.2H77.5153V115.128ZM59.2721 115.128H62.478V119.2H59.2721V115.128Z" fill="#300604"/>
<path d="M124.606 50.9402V97.3695L110.581 97.2831C110.581 97.2831 96.3309 114.015 96.4944 113.989C96.658 113.964 96.4944 97.1299 96.4944 97.1299L59.6065 97.3693V50.9402H124.606Z" fill="#FCE3C3"/>
<path d="M95.5667 98.8109H57.9197V49.4803H126.066V98.8109H111.259L95.5667 116.949V98.8109ZM123.146 52.4003H60.8397V95.8907H98.4867V109.111L109.925 95.8907H123.146V52.4003Z" fill="#300604"/>
<path d="M95.2347 117.841V99.1428H57.5876V49.1482H126.398V99.1428H111.411L95.2347 117.841ZM58.2518 98.4788H95.8988V116.058L111.107 98.4788H125.734V49.8124H58.2518V98.4788ZM98.1548 110.002V96.2228H60.5077V52.0684H123.478V96.2228H110.076L98.1548 110.002ZM61.1718 95.5586H98.8188V108.22L109.773 95.5586H122.814V52.7324H61.1718V95.5586Z" fill="#300604"/>
<path d="M90.0018 50.9828V33.631H15.1587V80.6694H27.107L39.2042 94.4671L39.0444 80.6694H59.2702V50.9828H90.0018Z" fill="#228E9D"/>
<path d="M39.6471 96.6474L25.6471 82.1297H13.6987V32.1707H91.4617V52.4431H60.7301V82.1297H39.7119L39.6471 96.6474ZM16.6188 79.2097H26.9847L37.1365 89.851L37.1677 79.2097H57.8099V49.5231H88.5417V35.0908H16.6188V79.2097Z" fill="#300604"/>
<path d="M39.9755 97.4662L25.5061 82.4616H13.3667V31.8387H91.7939V52.7752H61.062V82.4618H40.0425L39.9755 97.4662ZM14.0308 81.7976H25.7882L39.3187 95.8286L39.3813 81.7976H60.3978V52.111H91.1296V32.5027H14.0308V81.7976ZM37.4661 90.6775L26.8427 79.5416H16.2869V34.7587H88.8739V49.855H58.142V79.5416H37.4987L37.4661 90.6775ZM16.9508 78.8776H27.1268L36.8067 89.0244L36.8365 78.8776H57.4779V49.191H88.2096V35.4229H16.9508V78.8776Z" fill="#300604"/>
<path d="M43.8807 61.5666C44.4134 61.9274 44.9951 62.2776 45.6262 62.6177C46.2571 62.9577 46.675 63.2283 46.8799 63.429C47.0847 63.63 47.1872 63.9146 47.1872 64.2834C47.1872 64.5455 47.0662 64.8077 46.8247 65.07C46.5828 65.3321 46.29 65.4634 45.9458 65.4634C45.6671 65.4634 45.3291 65.3731 44.9318 65.1928C44.5342 65.0126 44.0672 64.7504 43.5304 64.4061C42.9937 64.0619 42.4056 63.6606 41.7665 63.2015C40.5783 63.8079 39.1195 64.1111 37.3905 64.1111C35.9892 64.1111 34.7333 63.8877 33.623 63.4412C32.5124 62.9945 31.5804 62.3514 30.8265 61.5114C30.0725 60.6714 29.5051 59.6738 29.1241 58.5182C28.7431 57.3627 28.5525 56.105 28.5525 54.7445C28.5525 53.3597 28.7511 52.0893 29.1486 50.9339C29.546 49.7785 30.1216 48.795 30.8756 47.9838C31.6295 47.1725 32.5474 46.5518 33.629 46.1215C34.7107 45.6914 35.9399 45.4762 37.3167 45.4762C39.1851 45.4762 40.7892 45.8553 42.1291 46.6131C43.4689 47.3713 44.4829 48.449 45.1713 49.846C45.8597 51.2434 46.2038 52.8843 46.2038 54.7691C46.2038 57.6293 45.4294 59.895 43.8807 61.5666ZM41.0166 59.5753C41.5246 58.9936 41.8995 58.3052 42.1414 57.5103C42.3831 56.7157 42.5039 55.7937 42.5039 54.7446C42.5039 53.4253 42.2908 52.2821 41.8648 51.315C41.4386 50.3483 40.8302 49.6169 40.0394 49.121C39.2485 48.6252 38.341 48.3774 37.3167 48.3774C36.5873 48.3774 35.9133 48.5146 35.2946 48.7892C34.6758 49.0638 34.1432 49.4633 33.6967 49.9876C33.2499 50.5122 32.8977 51.182 32.6395 51.9974C32.3814 52.8129 32.2524 53.7287 32.2524 54.7448C32.2524 56.818 32.7358 58.4139 33.7028 59.5325C34.6697 60.6512 35.8909 61.2103 37.3658 61.2103C37.9721 61.2103 38.595 61.0833 39.2342 60.8293C38.8489 60.5425 38.3677 60.2559 37.7899 59.9688C37.2121 59.6821 36.8167 59.4609 36.6037 59.3052C36.3906 59.1496 36.2842 58.9284 36.2842 58.6414C36.2842 58.3956 36.3866 58.1786 36.5915 57.9899C36.7963 57.8015 37.0218 57.7072 37.2676 57.7072C38.0131 57.7069 39.2629 58.3299 41.0166 59.5753Z" fill="#ED8F27"/>
<path d="M45.9457 65.7954C45.6163 65.7954 45.2397 65.6972 44.7944 65.4953C44.3842 65.3093 43.8986 65.0368 43.3511 64.6856C42.856 64.3683 42.313 63.9992 41.7348 63.5872C40.5377 64.1554 39.0774 64.4434 37.3905 64.4434C35.9532 64.4434 34.644 64.2098 33.4991 63.7494C32.3462 63.2858 31.3638 62.6074 30.5795 61.7333C29.7984 60.8632 29.2026 59.8165 28.8088 58.6224C28.4185 57.4388 28.2205 56.1341 28.2205 54.7448C28.2205 53.3292 28.4271 52.0107 28.8348 50.8262C29.2455 49.6321 29.8504 48.5997 30.6325 47.7581C31.4165 46.9144 32.3835 46.26 33.5065 45.8132C34.6225 45.3694 35.9044 45.1444 37.317 45.1444C39.2343 45.1444 40.9084 45.5414 42.2929 46.3244C43.6855 47.1125 44.7542 48.2478 45.4695 49.6996C46.1773 51.1365 46.5362 52.8422 46.5362 54.7694C46.5362 57.5404 45.812 59.8024 44.3825 61.5005C44.8386 61.7938 45.3061 62.069 45.7838 62.3256C46.4481 62.6836 46.8828 62.9669 47.1125 63.1918C47.3826 63.4569 47.5195 63.8242 47.5195 64.2834C47.5195 64.6301 47.368 64.9705 47.0691 65.295C46.7625 65.6271 46.3846 65.7954 45.9457 65.7954ZM41.7957 62.8138L41.9601 62.9318C42.5897 63.3839 43.1782 63.7859 43.7095 64.1264C44.2303 64.4604 44.6876 64.7175 45.0687 64.8903C45.4211 65.0501 45.7162 65.1312 45.9457 65.1312C46.1985 65.1312 46.4002 65.0401 46.5805 64.8448C46.7627 64.6469 46.8552 64.458 46.8552 64.2833C46.8552 64.005 46.7872 63.8031 46.6473 63.6658C46.5225 63.5435 46.2164 63.313 45.4686 62.9099C44.8299 62.5658 44.2329 62.2064 43.6944 61.8416L43.3742 61.6248L43.6369 61.3411C45.1198 59.7405 45.8717 57.5293 45.8717 54.7693C45.8717 52.9448 45.5358 51.3378 44.8734 49.9929C44.2181 48.6631 43.2398 47.6234 41.9654 46.9025C40.682 46.1765 39.118 45.8085 37.3166 45.8085C35.9885 45.8085 34.789 46.0176 33.7516 46.4302C32.7209 46.8403 31.8351 47.4391 31.1188 48.2101C30.4001 48.9833 29.8428 49.9363 29.4625 51.0422C29.0788 52.157 28.8843 53.4029 28.8843 54.7448C28.8843 56.0635 29.0709 57.298 29.4392 58.4145C29.8041 59.5209 30.3539 60.4883 31.0734 61.2898C31.7894 62.0877 32.6889 62.7078 33.7467 63.1333C34.8124 63.5619 36.0384 63.7793 37.3904 63.7793C39.0581 63.7793 40.4796 63.4855 41.6154 62.9059L41.7957 62.8138ZM37.3658 61.5423C35.7967 61.5423 34.4798 60.9391 33.4515 59.7495C32.4354 58.5743 31.9203 56.8905 31.9203 54.7448C31.9203 53.6994 32.0558 52.7413 32.3229 51.8972C32.5933 51.0431 32.9704 50.3281 33.4437 49.7725C33.9207 49.2122 34.4981 48.7794 35.1598 48.4858C35.8183 48.1936 36.544 48.0454 37.3166 48.0454C38.3992 48.0454 39.3746 48.3127 40.2157 48.8399C41.0599 49.3693 41.717 50.1572 42.1684 51.1814C42.6113 52.1867 42.8359 53.3855 42.8359 54.7448C42.8359 55.8215 42.709 56.7844 42.459 57.6071C42.2045 58.4436 41.8034 59.1794 41.2666 59.794L41.0692 60.0201L40.8244 59.8463C38.7212 58.3527 37.7293 58.0392 37.2675 58.0392C37.1066 58.0392 36.9589 58.103 36.8163 58.2343C36.6799 58.3599 36.6163 58.4893 36.6163 58.6414C36.6163 58.8226 36.6729 58.9445 36.7995 59.0371C36.9964 59.1812 37.3792 59.3945 37.9375 59.6716C38.5308 59.9664 39.0337 60.2665 39.4326 60.5631L39.9097 60.9183L39.357 61.138C38.6816 61.4063 38.0116 61.5423 37.3658 61.5423ZM37.3167 48.7093C36.6373 48.7093 36.0024 48.8383 35.4293 49.0926C34.8593 49.3456 34.3614 49.7192 33.9495 50.2029C33.5338 50.6907 33.1997 51.3282 32.9561 52.0975C32.7094 52.8765 32.5843 53.7673 32.5843 54.7445C32.5843 56.7261 33.0452 58.2638 33.954 59.315C34.863 60.3668 35.979 60.8781 37.3658 60.8781C37.7297 60.8781 38.1045 60.8276 38.4856 60.7273C38.2111 60.5617 37.9297 60.4077 37.6421 60.2659C37.0418 59.968 36.6379 59.7413 36.4075 59.5729C36.1096 59.3555 35.952 59.0333 35.952 58.6411C35.952 58.2999 36.0914 57.9986 36.3664 57.7454C36.6337 57.4995 36.9368 57.3749 37.2673 57.3749C38.0525 57.3749 39.2604 57.9483 40.9553 59.1265C41.3362 58.6318 41.6277 58.0571 41.8235 57.4135C42.0546 56.6537 42.1717 55.7557 42.1717 54.7447C42.1717 53.478 41.9662 52.3692 41.5607 51.4491C41.1638 50.5486 40.5925 49.86 39.8628 49.4024C39.1295 48.9425 38.2726 48.7093 37.3167 48.7093Z" fill="#ED8F27"/>
<path d="M85.3713 87.1387L80.8359 85.2141L92.8063 56.9832L104.698 85.2205L100.156 87.1322L92.7903 69.6399L85.3713 87.1387Z" fill="#B12800"/>
<path d="M86.4907 75.55H98.6471V80.4768H86.4907V75.55Z" fill="#B12800"/>
</svg>
