<svg width="140" height="140" viewBox="0 0 140 140" fill="none" xmlns="http://www.w3.org/2000/svg">
<path d="M40.2253 69.2995C40.2253 73.3623 41.0255 77.3854 42.5803 81.139C44.1351 84.8926 46.414 88.3032 49.2868 91.1761C52.1597 94.049 55.5703 96.3279 59.3239 97.8827C63.0775 99.4374 67.1006 100.238 71.1635 100.238C75.2263 100.238 79.2494 99.4374 83.003 97.8827C86.7566 96.3279 90.1672 94.049 93.0401 91.1761C95.913 88.3032 98.1919 84.8926 99.7467 81.139C101.301 77.3854 102.102 73.3623 102.102 69.2995C102.102 65.2366 101.301 61.2135 99.7467 57.4599C98.1919 53.7063 95.913 50.2957 93.0401 47.4228C90.1672 44.55 86.7566 42.2711 83.003 40.7163C79.2494 39.1615 75.2263 38.3612 71.1635 38.3612C67.1006 38.3612 63.0775 39.1615 59.3239 40.7163C55.5703 42.2711 52.1597 44.55 49.2868 47.4228C46.414 50.2957 44.1351 53.7063 42.5803 57.4599C41.0255 61.2135 40.2253 65.2366 40.2253 69.2995Z" fill="#228E9D"/>
<path d="M38.7125 107.122C38.7125 108.773 40.0511 110.111 41.7021 110.111C40.0509 110.111 38.7125 111.45 38.7125 113.101C38.7125 111.45 37.374 110.111 35.723 110.111C37.374 110.111 38.7125 108.773 38.7125 107.122Z" fill="#ED8F27"/>
<path d="M40.2294 115.965H37.195V113.1C37.195 112.288 36.5352 111.629 35.7233 111.629H32.8589V108.594H35.7233C36.5352 108.594 37.195 107.934 37.195 107.122V104.257H40.2294V107.122C40.2294 107.934 40.8901 108.594 41.7021 108.594V111.629C40.8903 111.629 40.2294 112.288 40.2294 113.1V115.965ZM44.5665 111.629H41.702V108.594H44.5665V111.629Z" fill="#ED8F27"/>
<path d="M122.147 79.9067C122.147 81.012 123.043 81.9081 124.149 81.9081C123.043 81.9081 122.147 82.8041 122.147 83.9096C122.147 82.8041 121.251 81.9081 120.146 81.9081C121.251 81.9081 122.147 81.012 122.147 79.9067Z" fill="#ED8F27"/>
<path d="M123.163 85.8274H121.131V83.9096C121.131 83.366 120.69 82.9238 120.146 82.9238H118.228V80.8923H120.146C120.407 80.892 120.658 80.7882 120.842 80.6034C121.027 80.4187 121.131 80.1682 121.131 79.9069V77.9892H123.163V79.9069C123.163 80.4505 123.605 80.8923 124.149 80.8923V82.9238C123.605 82.9238 123.163 83.3662 123.163 83.9096V85.8274ZM126.066 82.9236H124.149V80.8921H126.066V82.9236Z" fill="#ED8F27"/>
<path d="M109.224 86.2203C109.224 87.8713 110.563 89.2098 112.214 89.2098C110.563 89.2098 109.224 90.5484 109.224 92.1994C109.224 90.5483 107.886 89.2098 106.235 89.2098C107.886 89.2099 109.224 87.8715 109.224 86.2203Z" fill="#ED8F27"/>
<path d="M110.742 95.0638H107.707V92.1993C107.707 91.3875 107.047 90.7276 106.235 90.7276H103.37V87.6933H106.235C107.047 87.6933 107.707 87.0324 107.707 86.2206V83.356H110.742V86.2204C110.742 87.0323 111.401 87.6932 112.213 87.6932V90.7275C111.401 90.7275 110.742 91.3873 110.742 92.1992V95.0638ZM115.078 90.7275H112.214V87.6932H115.078V90.7275Z" fill="#ED8F27"/>
<path d="M98.0461 106.553C98.0461 107.68 98.9602 108.594 100.088 108.594H102.043H100.088C98.9602 108.594 98.0462 109.508 98.0462 110.636C98.0462 109.508 97.1322 108.594 96.0047 108.594C97.1321 108.594 98.0461 107.681 98.0461 106.553Z" fill="#ED8F27"/>
<path d="M99.0821 112.592H97.0101V110.636C97.0101 110.082 96.559 109.63 96.0044 109.63H94.0484V107.558H96.0044C96.5588 107.558 97.0101 107.107 97.0101 106.553V104.597H99.0823V106.553C99.0823 107.107 99.5334 107.558 100.088 107.558V109.631C99.5334 109.631 99.0823 110.082 99.0823 110.636L99.0821 112.592ZM102.044 109.63H100.088V107.558H102.044V109.63Z" fill="#ED8F27"/>
<path d="M20.4487 55.8586C20.4487 57.5098 21.7872 58.8481 23.4382 58.8481C21.7871 58.8481 20.4487 60.1867 20.4487 61.8378C20.4487 60.1866 19.1101 58.8483 17.4591 58.8483C19.1103 58.8483 20.4487 57.5098 20.4487 55.8586Z" fill="#ED8F27"/>
<path d="M21.9662 64.7025H18.9319V61.8382C18.9319 61.0263 18.271 60.3654 17.4591 60.3654H14.5947V57.3311H17.4591C18.2711 57.3311 18.9319 56.6702 18.9319 55.8584V52.994H21.9662V55.8584C21.9662 56.6702 22.626 57.3311 23.4378 57.3311V60.3654C22.626 60.3654 21.9662 61.0262 21.9662 61.8382V64.7025ZM26.3024 60.3654H23.4378V57.3311H26.3024V60.3654Z" fill="#ED8F27"/>
<path d="M81.6848 100.968C64.1369 106.799 45.1158 97.2671 39.2843 79.7191C33.4529 62.1711 42.9852 43.1501 60.5332 37.3186C78.0812 31.4872 97.102 41.0195 102.934 58.5674C108.765 76.1153 99.2326 95.1363 81.6848 100.968ZM61.4901 40.198C45.5299 45.5018 36.86 62.8019 42.1639 78.7622C47.4676 94.7223 64.7679 103.392 80.7279 98.0883C96.688 92.7846 105.358 75.4845 100.054 59.5243C94.7502 43.5641 77.4501 34.8942 61.4901 40.198Z" fill="#300604"/>
<path d="M41.3982 96.6756C32.6022 99.5986 25.6405 100.405 23.6472 97.0102C20.7984 92.1583 30.4515 82.9946 39.0524 76.1614L40.9393 78.5382C27.1671 89.4797 25.6761 94.4739 26.2635 95.4745C28.1456 98.6795 48.3524 93.0813 75.7285 77.009C87.9727 69.8195 98.9168 62.1223 106.545 55.3353C115.254 47.5858 116.508 43.7549 115.954 42.8117C115.361 41.8013 110.217 40.6715 93.7515 47.4838L92.5909 44.6804C102.859 40.4302 115.704 36.3917 118.571 41.2761C120.497 44.5559 117.223 49.8958 108.562 57.6023C100.79 64.5172 89.6751 72.339 77.2643 79.6254C66.6069 85.8836 52.5328 92.9754 41.3982 96.6756Z" fill="#300604"/>
<path d="M27.5455 45.5208C27.5455 46.1735 27.6741 46.8199 27.9239 47.4229C28.1737 48.0259 28.5398 48.5739 29.0013 49.0354C29.4629 49.497 30.0108 49.8631 30.6138 50.1129C31.2169 50.3626 31.8632 50.4912 32.5159 50.4912C33.1687 50.4912 33.815 50.3626 34.418 50.1129C35.0211 49.8631 35.569 49.497 36.0306 49.0354C36.4921 48.5739 36.8582 48.0259 37.108 47.4229C37.3578 46.8199 37.4864 46.1735 37.4864 45.5208C37.4864 44.8681 37.3578 44.2217 37.108 43.6187C36.8582 43.0157 36.4921 42.4677 36.0306 42.0062C35.569 41.5446 35.0211 41.1785 34.418 40.9287C33.815 40.6789 33.1687 40.5504 32.5159 40.5504C31.8632 40.5504 31.2169 40.6789 30.6138 40.9287C30.0108 41.1785 29.4629 41.5446 29.0013 42.0062C28.5398 42.4677 28.1737 43.0157 27.9239 43.6187C27.6741 44.2217 27.5455 44.8681 27.5455 45.5208Z" fill="#B12800"/>
<path d="M32.5165 52.0082C28.9389 52.0082 26.028 49.0984 26.028 45.5208C26.028 41.9431 28.9389 39.0332 32.5165 39.0332C36.0942 39.0332 39.004 41.9431 39.004 45.5208C39.004 49.0984 36.0942 52.0082 32.5165 52.0082ZM32.5165 42.0677C30.612 42.0677 29.0623 43.6166 29.0623 45.5209C29.0623 47.4253 30.612 48.974 32.5165 48.974C34.4209 48.974 35.9696 47.4253 35.9696 45.5209C35.9696 43.6164 34.4209 42.0677 32.5165 42.0677Z" fill="#300604"/>
<path d="M87.9069 41.8897C89.3164 39.1243 89.6641 35.8194 88.608 32.6412C86.5144 26.3413 79.71 22.9312 73.41 25.0249C67.9562 26.8374 64.6757 32.1806 65.2491 37.6703C73.2538 36.1698 81.2955 37.8193 87.9069 41.8897Z" fill="#FCE3C3"/>
<path d="M88.5124 44.0434L87.111 43.181C80.6349 39.1941 72.9705 37.7672 65.5287 39.1619L63.912 39.465L63.7407 37.8283C63.0854 31.5626 66.9508 25.5724 72.9319 23.5848C80.0155 21.2308 87.6933 25.0786 90.0476 32.163C91.1975 35.6236 90.9178 39.3231 89.2587 42.5775L88.5124 44.0434ZM66.7168 35.8996C73.7663 34.959 80.9132 36.2915 87.1773 39.7128C87.8853 37.5802 87.8892 35.29 87.1682 33.1201C85.3416 27.6235 79.3846 24.6382 73.889 26.4645C69.7655 27.8346 66.9394 31.6549 66.7168 35.8996Z" fill="#300604"/>
<path d="M55.8798 97.2985C53.8533 100.114 53.1508 103.823 54.3285 107.367C56.2777 113.233 62.6128 116.408 68.4783 114.458C74.1727 112.566 77.3162 106.541 75.7124 100.824C68.7492 101.844 61.8173 100.509 55.8798 97.2985Z" fill="#ED8F27"/>
<path d="M68.9571 115.898C62.3067 118.108 55.0985 114.496 52.8884 107.846C51.6089 103.995 52.2672 99.721 54.648 96.412L55.4272 95.3299L56.6006 95.9641C62.4343 99.1173 68.9667 100.279 75.4926 99.3233L76.8124 99.1293L77.173 100.415C79.0077 106.956 75.3986 113.758 68.9571 115.898ZM56.4252 99.2853C55.1852 101.612 54.931 104.37 55.7679 106.889C57.4502 111.951 62.9377 114.701 68.0002 113.019C72.4864 111.528 75.1666 107.065 74.5183 102.502C68.2838 103.151 62.0825 102.049 56.4252 99.2853ZM89.0771 54.5094C89.0529 54.4672 86.4671 50.0359 81.8649 47.7295C77.2371 45.4103 72.4451 45.7685 72.3972 45.7723L72.1444 42.7752C72.3729 42.7556 77.8016 42.3288 83.2124 45.0405C88.651 47.7661 91.5686 52.8067 91.6902 53.0198L89.0771 54.5094ZM92.894 54.9654L94.5161 58.2863L91.8136 59.6065L90.1915 56.2856L92.894 54.9654Z" fill="#300604"/>
</svg>
