<svg width="140" height="140" viewBox="0 0 140 140" fill="none" xmlns="http://www.w3.org/2000/svg">
<path d="M114.539 47.0676V108.253H38.7223V26.7854H92.6801L114.539 47.0676Z" fill="#FCE3C3"/>
<path d="M114.539 109.893H38.7223L37.0817 108.253V26.7854L38.7223 25.1448H92.6801L93.796 25.5827L115.654 45.8649L116.179 47.0676V108.253L114.539 109.893ZM40.3629 106.612H112.898V47.7833L92.0362 28.426H40.3629V106.612Z" fill="#300604"/>
<path d="M92.68 26.7854V47.0675H114.539L92.68 26.7854Z" fill="#ED8F27"/>
<path d="M114.539 48.7082H92.68L91.0394 47.0676V26.7854L93.7959 25.5827L115.654 45.8649L114.539 48.7082ZM94.3206 45.427H110.358L94.3206 30.5458V45.427ZM87.2908 61.9783H105.948V66.1706H87.2908V61.9783ZM87.2908 71.2562H105.948V75.4485H87.2908V71.2562Z" fill="#300604"/>
<path d="M18.9997 58.1411H67.2122V119.371H18.9997V58.1411Z" fill="#B12800"/>
<path d="M67.2122 121.011H18.9997L17.359 119.371V58.1411L18.9997 56.5005H67.2123L68.8529 58.1411V119.371L67.2122 121.011ZM20.6403 117.73H65.5717V59.7818H20.6403V117.73Z" fill="#300604"/>
<path d="M25.5921 65.5238H60.2704V73.3524H25.5921V65.5238Z" fill="#300604"/>
<path d="M43.4127 95.3247H59.8105V113.311H43.4127V95.3247Z" fill="#228E9D"/>
<path d="M25.9242 78.092H42.322V96.078H25.9242V78.092Z" fill="#FCE3C3"/>
<path d="M25.9242 96.0186H42.322V114.005H25.9242V96.0186ZM43.4127 78.5459H59.8105V96.5319H43.4127V78.5459Z" fill="#ED8F27"/>
<path d="M67.2122 119.371H18.9997V58.1411H67.2122C67.2125 58.1411 67.2129 58.1413 67.2131 58.1415C67.2134 58.1418 67.2135 58.1421 67.2135 58.1425V119.37C67.2135 119.37 67.2128 119.371 67.2122 119.371ZM21.0979 60.2394V117.273H65.1152V60.2394H21.0979Z" fill="#300604"/>
<path d="M61.3196 113.821H24.8928V77.3931H61.3196V113.821ZM26.9912 111.722H59.2214V79.4913H26.9912V111.722ZM61.3196 74.5434H24.8928V64.9469H61.3196V74.5434ZM26.9912 72.4452H59.2214V67.0451H26.9912V72.4452Z" fill="#300604"/>
<path d="M25.942 94.5577H60.2704V96.6559H25.942V94.5577Z" fill="#300604"/>
<path d="M42.0567 78.4423H44.155V112.772H42.0567V78.4423ZM29.5962 86.237H38.6497V88.3352H29.5962V86.237Z" fill="#300604"/>
<path d="M33.0735 82.7597H35.1717V91.8132H33.0735V82.7597ZM31.6694 100.605L38.0717 107.007L36.5883 108.49L30.1857 102.088L31.6694 100.605Z" fill="#300604"/>
<path d="M36.5829 100.602L38.0663 102.085L31.6641 108.488L30.1807 107.004L36.5829 100.602ZM47.2779 86.237H56.3329V88.3352H47.2779V86.237ZM47.2779 101.145H56.3329V103.244H47.2779V101.145ZM47.2779 105.406H56.3329V107.504H47.2779V105.406Z" fill="#300604"/>
<path d="M91.3511 90.8916H96.7902V94.9644H91.3511V90.8916Z" fill="#300604"/>
<path d="M102.087 90.8916H105.293V94.9644H102.087V90.8916Z" fill="#300604"/>
<path d="M83.8436 90.8916H87.0495V94.9644H83.8436V90.8916Z" fill="#300604"/>
<path d="M48.7546 37.936H63.1046V42.0089H48.7546V37.936Z" fill="#300604"/>
<path d="M66.9554 37.936H71.7864V42.0089H66.9554V37.936Z" fill="#300604"/>
</svg>
